<svg xmlns="http://www.w3.org/2000/svg" width="39.656" height="45.78" viewBox="0 0 39.656 45.78">
  <defs>
    <style>
      .cls-1 {
        fill: #fff;
        fill-rule: evenodd;
      }
    </style>
  </defs>
  <path id="android_icon" data-name="android icon" class="cls-1" d="M897.634,3925.96a2.857,2.857,0,0,0-2.833,2.86v11.45a2.833,2.833,0,1,0,5.666,0v-11.45A2.857,2.857,0,0,0,897.634,3925.96Zm-34,0a2.857,2.857,0,0,0-2.834,2.86v11.45a2.834,2.834,0,1,0,5.667,0v-11.45A2.857,2.857,0,0,0,863.637,3925.96Zm4.249,18.6a4.27,4.27,0,0,0,4.25,4.29h1.417v5.72a2.833,2.833,0,1,0,5.666,0v-5.72h2.833v5.72a2.833,2.833,0,1,0,5.666,0v-5.72h1.416a4.269,4.269,0,0,0,4.25-4.29v-15.74h-25.5v15.74Zm18-28.9,1.793-3.48a0.355,0.355,0,1,0-.628-0.33l-1.82,3.53a12.706,12.706,0,0,0-9.19,0l-1.82-3.53a0.355,0.355,0,0,0-.628.33l1.793,3.48a12.865,12.865,0,0,0-7.42,10.3h25.34A12.863,12.863,0,0,0,885.885,3915.66Zm-10.916,8.09a2.075,2.075,0,1,1,2.054-2.08A2.066,2.066,0,0,1,874.969,3923.75Zm11.332,0a2.075,2.075,0,1,1,2.054-2.08A2.067,2.067,0,0,1,886.3,3923.75Z" transform="translate(-860.813 -3911.66)"/>
</svg>
