<svg xmlns="http://www.w3.org/2000/svg" width="36.937" height="45.75" viewBox="0 0 36.937 45.75">
  <defs>
    <style>
      .cls-1 {
        fill: #fff;
        fill-rule: evenodd;
      }
    </style>
  </defs>
  <path id="Apple_icon" data-name="Apple icon" class="cls-1" d="M632.407,3934.53a10.35,10.35,0,0,1,4.893-8.71,10.546,10.546,0,0,0-8.288-4.53c-3.53-.37-6.888,2.09-8.679,2.09s-4.552-2.04-7.479-1.99a11.082,11.082,0,0,0-9.377,5.74c-4,7-1.024,17.36,2.873,23.04,1.9,2.78,4.174,5.9,7.154,5.79,2.871-.12,3.956-1.88,7.427-1.88s4.445,1.88,7.483,1.82c3.089-.06,5.045-2.83,6.936-5.62a25.3,25.3,0,0,0,3.14-6.5A10.08,10.08,0,0,1,632.407,3934.53Zm-5.708-17a10.161,10.161,0,0,0,2.359-7.31,10.134,10.134,0,0,0-6.676,3.47,9.631,9.631,0,0,0-2.407,7.07A8.378,8.378,0,0,0,626.7,3917.53Z" transform="translate(-601.563 -3910.22)"/>
</svg>
