<svg xmlns="http://www.w3.org/2000/svg" width="36.72" height="36.75" viewBox="0 0 36.72 36.75">
  <defs>
    <style>
      .cls-1 {
        fill: #d0d1d2;
        fill-rule: evenodd;
      }
    </style>
  </defs>
  <path id="Dribble" class="cls-1" d="M1318.18,5494.14a95.22,95.22,0,0,0-5.82-9.05,15.715,15.715,0,0,0-8.66,10.96A57.775,57.775,0,0,0,1318.18,5494.14Zm1.95,5.27c0.21-.07.42-0.13,0.62-0.19-0.39-.89-0.82-1.78-1.27-2.66a57.552,57.552,0,0,1-16.1,2.23c-0.01.17-.01,0.33-0.01,0.5a15.6,15.6,0,0,0,4.02,10.49,0.01,0.01,0,0,1-.01-0.01S1311.67,5502.15,1320.13,5499.41Zm-10.72,12.25h0c-0.11-.09-0.24-0.18-0.35-0.27C1309.26,5511.55,1309.41,5511.66,1309.41,5511.66Zm5.88-27.61c-0.01,0-.03.01-0.04,0.01a0.1,0.1,0,0,1,.04-0.01h0Zm14.12,3.46a15.6,15.6,0,0,0-14.06-3.47,78.923,78.923,0,0,1,5.87,9.15C1327.13,5490.97,1329.37,5487.58,1329.41,5487.51Zm-10.36,30.16a18.38,18.38,0,1,1,18.36-18.38A18.379,18.379,0,0,1,1319.05,5517.67Zm2.67-15.81c-9.21,3.21-12.25,9.67-12.31,9.8a15.614,15.614,0,0,0,15.76,2.08,64.936,64.936,0,0,0-3.35-11.92C1321.79,5501.84,1321.75,5501.84,1321.72,5501.86Zm0.7-6.33q0.555,1.125,1.05,2.28l0.33,0.81a36.391,36.391,0,0,1,10.93.51,15.65,15.65,0,0,0-3.57-9.81C1331.13,5489.37,1328.61,5493,1322.42,5495.53Zm2.34,5.57a67.8,67.8,0,0,1,3.05,11.21,15.674,15.674,0,0,0,6.72-10.53A22.8,22.8,0,0,0,1324.76,5501.1Z" transform="translate(-1300.69 -5480.91)"/>
</svg>
