<svg xmlns="http://www.w3.org/2000/svg" width="37.03" height="37.06" viewBox="0 0 37.03 37.06">
  <defs>
    <style>
      .cls-1 {
        fill: #d0d1d2;
        fill-rule: evenodd;
      }
    </style>
  </defs>
  <path id="Instagram_Social_Network_Logo_Of_Photo_Camera" data-name="Instagram Social Network Logo Of Photo Camera" class="cls-1" d="M1064.5,5479.51h27.52a4.645,4.645,0,0,1,4.75,4.76v27.54a4.643,4.643,0,0,1-4.75,4.75H1064.5a4.637,4.637,0,0,1-4.75-4.75v-27.54a4.639,4.639,0,0,1,4.75-4.76h0Zm22.21,4.12a1.671,1.671,0,0,0-1.66,1.67v3.99a1.671,1.671,0,0,0,1.66,1.67h4.19a1.673,1.673,0,0,0,1.67-1.67v-3.99a1.673,1.673,0,0,0-1.67-1.67h-4.19Zm5.87,11.55h-3.26a10.834,10.834,0,0,1,.48,3.18,11.51,11.51,0,0,1-23.01,0,10.829,10.829,0,0,1,.47-3.18h-3.4v15.65a1.472,1.472,0,0,0,1.47,1.47h25.78a1.472,1.472,0,0,0,1.47-1.47v-15.65h0Zm-14.29-4.43a7.214,7.214,0,1,0,7.44,7.21A7.326,7.326,0,0,0,1078.29,5490.75Z" transform="translate(-1059.75 -5479.5)"/>
</svg>
