<svg xmlns="http://www.w3.org/2000/svg" width="28.66" height="36.03" viewBox="0 0 28.66 36.03">
  <defs>
    <style>
      .cls-1 {
        fill: #d0d1d2;
        fill-rule: evenodd;
      }
    </style>
  </defs>
  <path id="Social_Pinterest" data-name="Social Pinterest" class="cls-1" d="M1190.64,5500.55c1.78-3.08-.57-3.75-0.94-5.98-1.51-9.12,10.75-15.35,17.17-8.98,4.44,4.41,1.52,17.98-5.65,16.57-6.85-1.35,3.36-12.15-2.11-14.27-4.45-1.72-6.81,5.27-4.7,8.75-1.24,5.98-3.9,11.6-2.83,19.1,3.5-2.49,4.68-7.24,5.65-12.2,1.76,1.05,2.7,2.13,4.94,2.3,8.26,0.63,12.88-8.07,11.75-16.1-1-7.12-8.25-10.75-15.99-9.9-6.12.67-12.21,5.51-12.47,12.43C1185.31,5496.49,1186.53,5499.66,1190.64,5500.55Z" transform="translate(-1185.47 -5479.72)"/>
</svg>
