<?xml version="1.0" encoding="utf-8"?>
<!-- Generator: Adobe Illustrator 19.0.1, SVG Export Plug-In . SVG Version: 6.00 Build 0)  -->
<svg version="1.1" id="Capa_1" xmlns="http://www.w3.org/2000/svg" xmlns:xlink="http://www.w3.org/1999/xlink" x="0px" y="0px"
	 viewBox="-41 164.9 512 512" style="enable-background:new -41 164.9 512 512;" xml:space="preserve">
<style type="text/css">
	.st0{fill:#FFFFFF;}
</style>
<g>
	<path class="st0" d="M236.5,164.9h-48l-144,160h-48c-17.7,0-32.4,14.3-32.4,32v128c0,17.7,14.7,32,32.4,32h48l144,160h48
		c8.8,0,15.6-7.2,15.6-16v-480C252.2,172.1,245.4,164.9,236.5,164.9z"/>
	<path class="st0" d="M341.5,352.8c-11.1-13.7-31.3-15.9-45-4.8c-13.8,11-15.9,31.2-4.9,45c11.8,14.6,11.8,41.3,0,55.9
		c-11.1,13.8-8.9,33.9,4.9,45c5.7,4.6,12.8,7.1,20,7.1c9.8,0,18.9-4.4,25-11.9C372.2,450.8,372.2,391,341.5,352.8z"/>
	<path class="st0" d="M418.9,303.5c-6.4-6.7-15.1-10.4-24.3-10.6c-9.5,0.1-18,3.3-24.7,9.7c-13.7,13.3-14.1,35.3-0.9,49
		c36.9,38.2,36.9,100.3,0,138.5c-13.3,13.8-12.9,35.7,0.9,49c6.5,6.3,15,9.8,24.1,9.8c9.4,0,18.4-3.9,24.9-10.6
		C481.5,473.6,481.5,368.2,418.9,303.5z"/>
</g>
</svg>
