<svg xmlns="http://www.w3.org/2000/svg" width="36.625" height="29.78" viewBox="0 0 36.625 29.78">
  <defs>
    <style>
      .cls-1 {
        fill: #d0d1d2;
        fill-rule: evenodd;
      }
    </style>
  </defs>
  <path id="Social_Twitter_Bird_Symbol" data-name="Social Twitter Bird Symbol" class="cls-1" d="M612.713,5483.08a15.178,15.178,0,0,1-4.776,1.83,7.52,7.52,0,0,0-12.806,6.85,21.323,21.323,0,0,1-15.491-7.86,7.548,7.548,0,0,0,2.326,10.05,7.673,7.673,0,0,1-3.4-.95v0.09a7.526,7.526,0,0,0,6.028,7.38,7.586,7.586,0,0,1-1.98.26,7.347,7.347,0,0,1-1.415-.13,7.517,7.517,0,0,0,7.019,5.22,15.273,15.273,0,0,1-11.126,3.12,21.3,21.3,0,0,0,11.521,3.38c13.824,0,21.383-11.47,21.383-21.41l-0.024-.97a15.167,15.167,0,0,0,3.756-3.89,14.913,14.913,0,0,1-4.315,1.19A7.569,7.569,0,0,0,612.713,5483.08Z" transform="translate(-577.094 -5482.53)"/>
</svg>
