<!-- Symbol Definitions for all icons -->
<svg style="position: absolute; width: 0; height: 0;" width="0" height="0" version="1.1" xmlns="http://www.w3.org/2000/svg" xmlns:xlink="http://www.w3.org/1999/xlink">
	<defs>
		<symbol id="icon-apple" viewBox="0 0 32 32">
			<title>apple</title>
			<path class="path1" d="M24 0h-16c-1.104 0-2 0.895-2 2v28c0 1.105 0.896 2 2 2h16c1.105 0 2-0.895 2-2v-28c0-1.105-0.895-2-2-2zM16 28c-3.314 0-6-2.686-6-6s2.686-6 6-6 6 2.686 6 6-2.686 6-6 6zM22 13h-12v-9h12v9z"></path>
			<path class="path2" d="M18 22c0 1.105-0.895 2-2 2s-2-0.895-2-2c0-1.105 0.895-2 2-2s2 0.895 2 2z"></path>
		</symbol>
		<symbol id="icon-play" viewBox="0 0 32 32">
			<title>play</title>
			<path class="path1" d="M28.091 13.733l-21.294-13.417c-0.63-0.375-1.411-0.312-2.002-0.312-2.361 0-2.351 1.823-2.351 2.285v27.422c0 0.39-0.010 2.285 2.351 2.285 0.59 0 1.372 0.062 2.002-0.312l21.294-13.416c1.748-1.040 1.446-2.267 1.446-2.267s0.302-1.227-1.446-2.267z"></path>
		</symbol>
		<symbol id="icon-shapes" viewBox="0 0 32 32">
			<title>shapes</title>
			<path fill='#fff' class="path1" d="M4 6c-1.104 0-2 0.895-2 2v16c0 1.105 0.896 2 2 2s2-0.895 2-2v-16c0-1.105-0.896-2-2-2z"></path>
			<path fill='#fff' class="path2" d="M10 10c-1.104 0-2 0.895-2 2v8c0 1.105 0.896 2 2 2s2-0.895 2-2v-8c0-1.105-0.896-2-2-2z"></path>
			<path class="path3" d="M16 0c-1.104 0-2 0.895-2 2v28c0 1.105 0.896 2 2 2s2-0.895 2-2v-28c0-1.105-0.895-2-2-2z"></path>
			<path class="path4" d="M22 5c-1.105 0-2 0.895-2 2v18c0 1.105 0.895 2 2 2s2-0.895 2-2v-18c0-1.105-0.895-2-2-2z"></path>
			<path class="path5" d="M28 10c-1.105 0-2 0.895-2 2v8c0 1.105 0.895 2 2 2s2-0.895 2-2v-8c0-1.105-0.895-2-2-2z"></path>
		</symbol>
		<symbol id="icon-wifi" viewBox="0 0 32 32">
			<title>wifi</title>
			<path fill="#fff" class="path1" d="M8.272 2.037c0.466-0.466 0.466-1.221-0-1.687s-1.221-0.466-1.687 0c-5.189 5.19-5.189 13.633-0 18.823 0.233 0.233 0.538 0.349 0.844 0.349s0.611-0.116 0.843-0.349c0.466-0.466 0.466-1.221 0-1.687-4.259-4.259-4.259-11.19 0-15.449z"></path>
			<path fill="#fff" class="path2" d="M25.409 0.349c-0.466-0.466-1.221-0.466-1.687 0s-0.466 1.221 0 1.687c2.064 2.063 3.2 4.807 3.2 7.725s-1.137 5.661-3.2 7.725c-0.466 0.466-0.466 1.221-0 1.687 0.233 0.233 0.538 0.349 0.844 0.349s0.611-0.116 0.843-0.349c2.514-2.514 3.899-5.856 3.899-9.412s-1.384-6.898-3.898-9.412z"></path>
			<path fill="#fff" class="path3" d="M9.798 15.96c0.233 0.233 0.538 0.349 0.844 0.349s0.611-0.116 0.843-0.349c0.466-0.466 0.466-1.221 0-1.687-2.488-2.488-2.488-6.536 0-9.024 0.466-0.466 0.466-1.221-0-1.687s-1.221-0.466-1.687 0c-3.418 3.418-3.418 8.979-0 12.397z"></path>
			<path fill="#fff" class="path4" d="M20.508 15.96c0.233 0.233 0.538 0.349 0.843 0.349s0.611-0.116 0.844-0.349c1.656-1.656 2.568-3.857 2.568-6.199s-0.912-4.543-2.568-6.199c-0.466-0.466-1.221-0.466-1.687 0s-0.466 1.221 0 1.687c1.205 1.205 1.869 2.807 1.869 4.512s-0.664 3.307-1.869 4.512c-0.466 0.466-0.466 1.221 0 1.687z"></path>
			<path fill="#fff" class="path5" d="M15.996 12.79c1.674 0 3.030-1.356 3.030-3.030s-1.356-3.029-3.030-3.029c-1.673 0-3.030 1.356-3.030 3.029s1.356 3.030 3.030 3.030z"></path>
			<path fill="#fff" class="path6" d="M17.131 14.474c-0.159-0.492-0.618-0.825-1.135-0.825s-0.975 0.333-1.135 0.825l-5.171 15.965c-0.203 0.627 0.14 1.299 0.767 1.502 0.122 0.040 0.246 0.058 0.368 0.058 0.503 0 0.971-0.321 1.134-0.825l0.63-1.945h6.813l0.63 1.945c0.203 0.627 0.875 0.97 1.502 0.767s0.97-0.876 0.767-1.502l-5.171-15.965zM15.996 18.713l0.999 3.083h-1.997l0.999-3.083zM13.363 26.843l0.862-2.662h3.543l0.862 2.662h-5.268z"></path>
		</symbol>
		<symbol id="icon-headphones" viewBox="0 0 32 32">
			<title>headphones</title>
			<path class="path1" d="M16 0.612c-8.837 0-16 7.146-16 15.963v7.348c0 0.677 0.551 1.228 1.231 1.228 0.010 0 0.015 0.017 0.025 0.020h3.668v3.685c0 0.010 0.010 0.017 0.010 0.025 0 0.017-0.010 0.032-0.010 0.052 0 1.356 1.103 2.457 2.462 2.457s2.462-1.1 2.462-2.457c0-0.020-0.010-0.034-0.010-0.054 0-0.010 0.010-0.015 0.010-0.025v-9.824c0-1.356-1.103-2.457-2.462-2.457s-2.462 1.1-2.462 2.457v3.685h-2.462v-4.911c-0.037-0.404 0-0.812 0-1.228 0-7.461 6.060-13.507 13.538-13.507 7.476 0 13.538 6.048 13.538 13.507 0 0.413 0.037 0.822 0 1.228v4.911h-2.462v-3.685c0-1.356-1.103-2.457-2.462-2.457s-2.462 1.1-2.462 2.457v9.824c0 0.007 0.010 0.015 0.010 0.025 0 0.020-0.010 0.034-0.010 0.054 0 1.356 1.103 2.457 2.462 2.457s2.462-1.1 2.462-2.457c0-0.020-0.010-0.034-0.010-0.052 0-0.010 0.010-0.015 0.010-0.025v-3.685h3.685c0.005-0.003 0-0.020 0.007-0.020 0.679 0 1.231-0.549 1.231-1.228v-7.348c0-8.817-7.163-15.963-16-15.963z"></path>
		</symbol>
		<symbol id="icon-sound" viewBox="0 0 32 32">
			<title>sound</title>
			<path class="path1" d="M18.063 18c0 1.105-0.895 2-2 2s-2-0.895-2-2c0-1.105 0.895-2 2-2s2 0.895 2 2z"></path>
			<path class="path2" d="M22.063 26c1.105 0 1.938-0.895 1.938-2v-22c0-1.105-0.833-2-1.938-2h-12.063c-1.104 0-2 0.895-2 2v22c0 1.105 0.896 2 2 2h4v2h-4c-1.104 0-2 0.895-2 2s0.896 2 2 2h12c1.105 0 2-0.895 2-2s-0.895-2-2-2h-4v-2h4.063zM16.063 2c2.209 0 4 1.791 4 4s-1.791 4-4 4c-2.209 0-4-1.791-4-4s1.791-4 4-4zM10.063 18c0-3.314 2.686-6 6-6s6 2.686 6 6-2.686 6-6 6-6-2.686-6-6z"></path>
			<path class="path3" d="M17.063 6c0 0.552-0.448 1-1 1s-1-0.448-1-1c0-0.552 0.448-1 1-1s1 0.448 1 1z"></path>
		</symbol>		
		<symbol id="icon-play-video" viewBox="0 0 32 32">
			<title>play-video</title>
			<path fill="#fff" class="path1" d="M27.261 11.145c-0.471-0.293-1.090-0.15-1.383 0.321s-0.15 1.090 0.321 1.383c1.095 0.683 1.748 1.861 1.748 3.151s-0.654 2.468-1.748 3.151l-16.467 10.267c-1.162 0.724-2.57 0.76-3.767 0.096s-1.912-1.878-1.912-3.247v-20.535c0-1.369 0.715-2.583 1.912-3.247s2.605-0.628 3.767 0.096l9.586 5.977c0.471 0.293 1.090 0.15 1.383-0.321s0.15-1.090-0.321-1.383l-9.586-5.977c-1.79-1.116-3.959-1.171-5.803-0.148s-2.945 2.893-2.945 5.002v20.535c0 2.109 1.101 3.979 2.945 5.002 0.878 0.487 1.83 0.73 2.78 0.73 1.044 0 2.086-0.293 3.023-0.878l16.467-10.267c1.687-1.052 2.694-2.867 2.694-4.855s-1.007-3.803-2.694-4.855z"></path>
		</symbol>		
		<!-- mobile platform icons -->
		<symbol id="icon-winicon" viewBox="0 0 32 32">
			<title>winicon</title>
			<path fill="#fff" class="path1" d="M15.159 2.43v12.439h16.612v-14.869zM0.009 14.869h12.553v-12.228l-12.553 1.831v10.397zM0.009 27.149l12.553 1.99v-12.712h-12.553v10.722zM15.159 29.359l16.612 2.632v-15.564h-16.612v12.932z"></path>
		</symbol>		
		<symbol id="icon-androidicon" viewBox="0 0 28 32">
			<title>androidicon</title>
			<path fill="#fff" class="path1" d="M25.738 9.996c-1.096 0.009-1.98 0.9-1.98 1.997 0 0.001 0 0.002 0 0.002v8.003c0 1.094 0.887 1.98 1.98 1.98s1.98-0.887 1.98-1.98c0 0 0 0 0 0v-8.004c0-0.001 0-0.001 0-0.002 0-1.097-0.885-1.987-1.979-1.997zM1.972 9.996c-1.096 0.009-1.981 0.9-1.981 1.997 0 0.001 0 0.002 0 0.002v8.003c-0 0.011-0 0.024-0 0.037 0 1.094 0.887 1.981 1.981 1.981s1.981-0.887 1.981-1.981c0-0.013-0-0.026-0-0.039l0-8.002c0-0.001 0-0.001 0-0.002 0-1.096-0.883-1.986-1.977-1.997zM4.942 22.997c-0 0.004-0 0.009-0 0.014 0 1.643 1.328 2.977 2.97 2.985h0.991v3.998c0 1.094 0.887 1.98 1.98 1.98s1.98-0.887 1.98-1.98c0 0 0 0 0 0v-3.998h1.98v3.998c0 1.094 0.887 1.98 1.98 1.98s1.98-0.887 1.98-1.98c0 0 0 0 0 0v-3.998h0.99c1.642-0.008 2.971-1.341 2.971-2.984 0-0.005 0-0.010-0-0.015v-11.001h-17.824v11.002zM17.524 2.796l1.253-2.433c0.021-0.036 0.033-0.078 0.033-0.124 0-0.137-0.111-0.248-0.248-0.248-0.098 0-0.183 0.057-0.223 0.14l-1.273 2.469c-0.952-0.38-2.056-0.601-3.212-0.601s-2.259 0.221-3.272 0.622l-1.212-2.488c-0.044-0.075-0.124-0.124-0.215-0.124-0.137 0-0.248 0.111-0.248 0.248 0 0.039 0.009 0.075 0.025 0.108l1.253 2.431c-2.827 1.321-4.828 3.991-5.183 7.159l17.709 0.041c-0.358-3.208-2.359-5.879-5.13-7.176zM9.894 8.451c-0.004 0-0.009 0-0.015 0-0.801 0-1.45-0.649-1.45-1.45s0.649-1.45 1.45-1.45c0.8 0 1.448 0.647 1.45 1.447 0 0.003 0 0.007 0 0.010 0 0.794-0.641 1.439-1.434 1.444zM17.815 8.451c-0.004 0-0.009 0-0.015 0-0.801 0-1.45-0.649-1.45-1.45s0.649-1.45 1.45-1.45c0.8 0 1.448 0.647 1.45 1.447 0 0.003 0 0.006 0 0.009 0 0.795-0.641 1.439-1.435 1.445z"></path>
		</symbol>		
		<symbol id="icon-appleicon" viewBox="0 0 26 32">
			<title>Appleicon</title>
			<path fill="#fff" class="path1" d="M21.574 17.004c0.022-2.562 1.371-4.804 3.392-6.075-1.27-1.875-3.367-3.097-5.754-3.186-2.482-0.259-4.831 1.461-6.084 1.461s-3.184-1.427-5.231-1.392c-2.82 0.088-5.251 1.669-6.539 3.976-2.818 4.936-0.736 12.182 1.989 16.155 1.329 1.944 2.92 4.127 5.004 4.050 2.008-0.084 2.767-1.315 5.195-1.315s3.109 1.315 5.234 1.273c2.161-0.042 3.529-1.979 4.851-3.931 0.893-1.308 1.639-2.814 2.161-4.421-2.488-1.235-4.219-3.713-4.22-6.595zM17.581 5.113c1.039-1.228 1.67-2.829 1.67-4.577 0-0.189-0.007-0.375-0.022-0.56-1.874 0.216-3.51 1.113-4.66 2.443-1.063 1.193-1.708 2.762-1.708 4.483 0 0.166 0.006 0.33 0.018 0.493 0.023-0.021 0.051-0.021 0.079-0.021 1.873 0 3.541-0.879 4.614-2.247z"></path>
		</symbol>	
	</defs>
</svg>